<?xml version="1.0" encoding="utf-8"?>
<!-- Generator: Adobe Illustrator 16.0.0, SVG Export Plug-In . SVG Version: 6.00 Build 0)  -->
<!DOCTYPE svg PUBLIC "-//W3C//DTD SVG 1.1//EN" "http://www.w3.org/Graphics/SVG/1.1/DTD/svg11.dtd">
<svg version="1.1"
	 id="svg2" xmlns:dc="http://purl.org/dc/elements/1.1/" xmlns:cc="http://creativecommons.org/ns#" xmlns:rdf="http://www.w3.org/1999/02/22-rdf-syntax-ns#" xmlns:svg="http://www.w3.org/2000/svg" xmlns:sodipodi="http://sodipodi.sourceforge.net/DTD/sodipodi-0.dtd" xmlns:inkscape="http://www.inkscape.org/namespaces/inkscape" sodipodi:docname="photos.svg" inkscape:version="0.48.2 r9819"
	 xmlns="http://www.w3.org/2000/svg" xmlns:xlink="http://www.w3.org/1999/xlink" x="0px" y="0px" width="30px" height="30px"
	 viewBox="0 0 30 30" enable-background="new 0 0 30 30" xml:space="preserve">
<sodipodi:namedview  inkscape:cy="15" inkscape:cx="15" inkscape:zoom="7.8666667" showgrid="false" id="namedview15" guidetolerance="10" gridtolerance="10" objecttolerance="10" borderopacity="1" bordercolor="#666666" pagecolor="#ffffff" inkscape:current-layer="svg2" inkscape:window-maximized="0" inkscape:window-y="0" inkscape:pageopacity="0" inkscape:window-x="0" inkscape:window-height="480" inkscape:window-width="640" inkscape:pageshadow="2">
	</sodipodi:namedview>
<g>
	<g id="DO_NOT_EDIT_-_BOUNDING_BOX">
		<rect id="BOUNDING_BOX" fill="none" width="30" height="30"/>
	</g>
	<path id="path7" fill="#FFFFFF" d="M24.5,17.5l-5.146-5.146c-0.193-0.193-0.513-0.193-0.707,0L13.5,17.5l-3.146-3.146
		c-0.194-0.193-0.513-0.193-0.707,0L5.5,18.5v4h19V17.5z M27,6H3C2.45,6,2,6.451,2,7v18c0,0.551,0.45,1,1,1h24c0.55,0,1-0.449,1-1V7
		C28,6.451,27.55,6,27,6z M26,24H4V8h22V24z"/>
	<path id="path11" opacity="0.15" enable-background="new    " d="M24.5,16.5l-5.146-5.146c-0.193-0.193-0.513-0.193-0.707,0
		L13.5,16.5l-3.146-3.146c-0.194-0.193-0.513-0.193-0.707,0L5.5,17.5v4h19V16.5z M27,5H3C2.45,5,2,5.451,2,6v18c0,0.551,0.45,1,1,1
		h24c0.55,0,1-0.449,1-1V6C28,5.451,27.55,5,27,5z M26,23H4V7h22V23z"/>
	<linearGradient id="path13_1_" gradientUnits="userSpaceOnUse" x1="15.0005" y1="25" x2="15.0005" y2="5.0005">
		<stop  offset="0" style="stop-color:#636363"/>
		<stop  offset="1" style="stop-color:#000000"/>
	</linearGradient>
	<path id="path13" fill="url(#path13_1_)" d="M24.5,16.5l-5.146-5.146c-0.193-0.193-0.513-0.193-0.707,0L13.5,16.5l-3.146-3.146
		c-0.194-0.193-0.513-0.193-0.707,0L5.5,17.5v4h19V16.5z M27,5H3C2.45,5,2,5.451,2,6v18c0,0.551,0.45,1,1,1h24c0.55,0,1-0.449,1-1V6
		C28,5.451,27.55,5,27,5z M26,23H4V7h22V23z"/>
</g>
</svg>
